# xmcd CD database file
#
# Track frame offsets:
#	182
#	16462
#	28552
#	45647
#	57080
#	71620
#	88950
#	99005
#	113547
#	128977
#
# Disc length: 1867 seconds
#
# Revision: 0
# Processed by: cddbd v1.5.2PL0 Copyright (c) Steve Scherf et al.
# Submitted via: CDex 1.51
#
DISCID=7907490a
DTITLE=Joyce Seamone - The Other Side Of Me
DYEAR=1994
DGENRE=Country
TTITLE0=I'm Lying Here In Your Arms Tonight
TTITLE1=I Didn't Tell You That I Love You Today
TTITLE2=All Over Again
TTITLE3=Two-Step On Saturday Night
TTITLE4=You Are The Only One For Me
TTITLE5=The Hurting Is Over
TTITLE6=He's Reaching For The Top
TTITLE7=Testing 1-2-3
TTITLE8=I Never Get Down
TTITLE9=I'm Stepping Out
EXTD=YEAR: 1994
EXTT0=
EXTT1=
EXTT2=
EXTT3=
EXTT4=
EXTT5=
EXTT6=
EXTT7=
EXTT8=
EXTT9=
PLAYORDER=
